<svg xmlns="http://www.w3.org/2000/svg" width="820" height="480" viewBox="0 0 820 480">
<rect width="100%" height="100%" fill="white"/>
<text x="410.0" y="30" text-anchor="middle" font-family="Arial" font-size="18">ML-DSA vs SLH-DSA 2VM server verify P99 latency</text>
<line x1="78" y1="416" x2="786" y2="416" stroke="black"/>
<line x1="78" y1="56" x2="78" y2="416" stroke="black"/>
<text x="410.0" y="460" text-anchor="middle" font-family="Arial" font-size="13">Concurrency</text>
<text x="20" y="240.0" transform="rotate(-90 20,240.0)" text-anchor="middle" font-family="Arial" font-size="13">server P99 ms</text>
<line x1="78.0" y1="416" x2="78.0" y2="421" stroke="black"/>
<text x="78.0" y="438" text-anchor="middle" font-family="Arial" font-size="12">1</text>
<line x1="117.0" y1="416" x2="117.0" y2="421" stroke="black"/>
<text x="117.0" y="438" text-anchor="middle" font-family="Arial" font-size="12">8</text>
<line x1="161.6" y1="416" x2="161.6" y2="421" stroke="black"/>
<text x="161.6" y="438" text-anchor="middle" font-family="Arial" font-size="12">16</text>
<line x1="250.8" y1="416" x2="250.8" y2="421" stroke="black"/>
<text x="250.8" y="438" text-anchor="middle" font-family="Arial" font-size="12">32</text>
<line x1="429.2" y1="416" x2="429.2" y2="421" stroke="black"/>
<text x="429.2" y="438" text-anchor="middle" font-family="Arial" font-size="12">64</text>
<line x1="786.0" y1="416" x2="786.0" y2="421" stroke="black"/>
<text x="786.0" y="438" text-anchor="middle" font-family="Arial" font-size="12">128</text>
<line x1="73" y1="416.0" x2="78" y2="416.0" stroke="black"/>
<text x="70" y="420.0" text-anchor="end" font-family="Arial" font-size="11">0.0</text>
<line x1="78" y1="416.0" x2="786" y2="416.0" stroke="#dddddd"/>
<line x1="73" y1="326.0" x2="78" y2="326.0" stroke="black"/>
<text x="70" y="330.0" text-anchor="end" font-family="Arial" font-size="11">5.0</text>
<line x1="78" y1="326.0" x2="786" y2="326.0" stroke="#dddddd"/>
<line x1="73" y1="236.0" x2="78" y2="236.0" stroke="black"/>
<text x="70" y="240.0" text-anchor="end" font-family="Arial" font-size="11">9.9</text>
<line x1="78" y1="236.0" x2="786" y2="236.0" stroke="#dddddd"/>
<line x1="73" y1="146.0" x2="78" y2="146.0" stroke="black"/>
<text x="70" y="150.0" text-anchor="end" font-family="Arial" font-size="11">14.9</text>
<line x1="78" y1="146.0" x2="786" y2="146.0" stroke="#dddddd"/>
<line x1="73" y1="56.0" x2="78" y2="56.0" stroke="black"/>
<text x="70" y="60.0" text-anchor="end" font-family="Arial" font-size="11">19.9</text>
<line x1="78" y1="56.0" x2="786" y2="56.0" stroke="#dddddd"/>
<polyline points="78.0,415.2 117.0,400.7 161.6,377.4 250.8,333.0 429.2,248.6 786.0,94.6" fill="none" stroke="#1f77b4" stroke-width="2.5"/>
<circle cx="78.0" cy="415.2" r="4" fill="#1f77b4"/>
<circle cx="117.0" cy="400.7" r="4" fill="#1f77b4"/>
<circle cx="161.6" cy="377.4" r="4" fill="#1f77b4"/>
<circle cx="250.8" cy="333.0" r="4" fill="#1f77b4"/>
<circle cx="429.2" cy="248.6" r="4" fill="#1f77b4"/>
<circle cx="786.0" cy="94.6" r="4" fill="#1f77b4"/>
<line x1="580" y1="68" x2="610" y2="68" stroke="#1f77b4" stroke-width="2.5"/>
<text x="618" y="72" font-family="Arial" font-size="12">ML-DSA</text>
<polyline points="78.0,409.6 117.0,402.4 161.6,383.2 250.8,344.3 429.2,280.6 786.0,133.0" fill="none" stroke="#ff7f0e" stroke-width="2.5"/>
<circle cx="78.0" cy="409.6" r="4" fill="#ff7f0e"/>
<circle cx="117.0" cy="402.4" r="4" fill="#ff7f0e"/>
<circle cx="161.6" cy="383.2" r="4" fill="#ff7f0e"/>
<circle cx="250.8" cy="344.3" r="4" fill="#ff7f0e"/>
<circle cx="429.2" cy="280.6" r="4" fill="#ff7f0e"/>
<circle cx="786.0" cy="133.0" r="4" fill="#ff7f0e"/>
<line x1="580" y1="92" x2="610" y2="92" stroke="#ff7f0e" stroke-width="2.5"/>
<text x="618" y="96" font-family="Arial" font-size="12">SLH-DSA</text>
</svg>
