<svg xmlns="http://www.w3.org/2000/svg" width="980" height="560" viewBox="0 0 980 560">
<rect width="100%" height="100%" fill="white"/>
<text x="490.0" y="35" text-anchor="middle" font-family="sans-serif" font-size="24" font-weight="700">ML-DSA-65 VM normalized throughput vs P99</text>
<text x="490.0" y="62" text-anchor="middle" font-family="sans-serif" font-size="13">KVM/libvirt single-node VM; host-passthrough; 8 vCPU; 16 GiB; no explicit vCPU pinning</text>
<line x1="90" y1="470" x2="940" y2="470" stroke="black" stroke-width="1"/>
<line x1="90" y1="470" x2="90" y2="90" stroke="black" stroke-width="1"/>
<line x1="90" y1="470.0" x2="940" y2="470.0" stroke="#ddd" stroke-width="1"/>
<text x="80" y="474.0" text-anchor="end" font-family="monospace" font-size="11">0.0</text>
<line x1="90" y1="394.0" x2="940" y2="394.0" stroke="#ddd" stroke-width="1"/>
<text x="80" y="398.0" text-anchor="end" font-family="monospace" font-size="11">0.2</text>
<line x1="90" y1="318.0" x2="940" y2="318.0" stroke="#ddd" stroke-width="1"/>
<text x="80" y="322.0" text-anchor="end" font-family="monospace" font-size="11">0.4</text>
<line x1="90" y1="242.0" x2="940" y2="242.0" stroke="#ddd" stroke-width="1"/>
<text x="80" y="246.0" text-anchor="end" font-family="monospace" font-size="11">0.6</text>
<line x1="90" y1="166.0" x2="940" y2="166.0" stroke="#ddd" stroke-width="1"/>
<text x="80" y="170.0" text-anchor="end" font-family="monospace" font-size="11">0.8</text>
<line x1="90" y1="90.0" x2="940" y2="90.0" stroke="#ddd" stroke-width="1"/>
<text x="80" y="94.0" text-anchor="end" font-family="monospace" font-size="11">1.0</text>
<line x1="90.0" y1="470" x2="90.0" y2="476" stroke="black" stroke-width="1"/>
<text x="90.0" y="494" text-anchor="middle" font-family="monospace" font-size="12">c1</text>
<line x1="281.93548387096774" y1="470" x2="281.93548387096774" y2="476" stroke="black" stroke-width="1"/>
<text x="281.93548387096774" y="494" text-anchor="middle" font-family="monospace" font-size="12">c8</text>
<line x1="336.7741935483871" y1="470" x2="336.7741935483871" y2="476" stroke="black" stroke-width="1"/>
<text x="336.7741935483871" y="494" text-anchor="middle" font-family="monospace" font-size="12">c10</text>
<line x1="391.61290322580646" y1="470" x2="391.61290322580646" y2="476" stroke="black" stroke-width="1"/>
<text x="391.61290322580646" y="494" text-anchor="middle" font-family="monospace" font-size="12">c12</text>
<line x1="501.2903225806452" y1="470" x2="501.2903225806452" y2="476" stroke="black" stroke-width="1"/>
<text x="501.2903225806452" y="494" text-anchor="middle" font-family="monospace" font-size="12">c16</text>
<line x1="720.6451612903226" y1="470" x2="720.6451612903226" y2="476" stroke="black" stroke-width="1"/>
<text x="720.6451612903226" y="494" text-anchor="middle" font-family="monospace" font-size="12">c24</text>
<line x1="940.0" y1="470" x2="940.0" y2="476" stroke="black" stroke-width="1"/>
<text x="940.0" y="494" text-anchor="middle" font-family="monospace" font-size="12">c32</text>
<polyline points="90.00,282.57 281.94,90.00 336.77,93.22 391.61,94.93 501.29,100.02 720.65,121.09 940.00,120.24" fill="none" stroke="black" stroke-width="2.5"/>
<polyline points="90.00,466.24 281.94,395.65 336.77,369.20 391.61,266.96 501.29,284.55 720.65,175.50 940.00,90.00" fill="none" stroke="black" stroke-width="2.5" stroke-dasharray="7 5"/>
<text x="90" y="515" font-family="sans-serif" font-size="13">Solid: throughput normalized to peak (73283.07 verify/s)</text>
<text x="90" y="535" font-family="sans-serif" font-size="13">Dashed: P99 latency normalized to max (3.770415 ms)</text>
</svg>