<svg xmlns="http://www.w3.org/2000/svg" width="980" height="560" viewBox="0 0 980 560">
<rect width="100%" height="100%" fill="white"/>
<text x="490.0" y="35" text-anchor="middle" font-family="sans-serif" font-size="24" font-weight="700">SLH-DSA / SPHINCS+-SHA2-128f-simple VM P99 latency</text>
<text x="490.0" y="62" text-anchor="middle" font-family="sans-serif" font-size="13">KVM/libvirt single-node VM; host-passthrough; 8 vCPU; 16 GiB; no explicit vCPU pinning</text>
<line x1="90" y1="480" x2="940" y2="480" stroke="black" stroke-width="1"/>
<line x1="90" y1="480" x2="90" y2="90" stroke="black" stroke-width="1"/>
<line x1="90" y1="480.0" x2="940" y2="480.0" stroke="#ddd" stroke-width="1"/>
<text x="80" y="484.0" text-anchor="end" font-family="monospace" font-size="11">0.00</text>
<line x1="90" y1="402.0" x2="940" y2="402.0" stroke="#ddd" stroke-width="1"/>
<text x="80" y="406.0" text-anchor="end" font-family="monospace" font-size="11">13.67</text>
<line x1="90" y1="324.0" x2="940" y2="324.0" stroke="#ddd" stroke-width="1"/>
<text x="80" y="328.0" text-anchor="end" font-family="monospace" font-size="11">27.35</text>
<line x1="90" y1="246.0" x2="940" y2="246.0" stroke="#ddd" stroke-width="1"/>
<text x="80" y="250.0" text-anchor="end" font-family="monospace" font-size="11">41.02</text>
<line x1="90" y1="168.0" x2="940" y2="168.0" stroke="#ddd" stroke-width="1"/>
<text x="80" y="172.0" text-anchor="end" font-family="monospace" font-size="11">54.70</text>
<line x1="90" y1="90.0" x2="940" y2="90.0" stroke="#ddd" stroke-width="1"/>
<text x="80" y="94.0" text-anchor="end" font-family="monospace" font-size="11">68.37</text>
<line x1="90.0" y1="480" x2="90.0" y2="486" stroke="black" stroke-width="1"/>
<text x="90.0" y="504" text-anchor="middle" font-family="monospace" font-size="12">c1</text>
<line x1="136.8503937007874" y1="480" x2="136.8503937007874" y2="486" stroke="black" stroke-width="1"/>
<text x="136.8503937007874" y="504" text-anchor="middle" font-family="monospace" font-size="12">c8</text>
<line x1="190.39370078740157" y1="480" x2="190.39370078740157" y2="486" stroke="black" stroke-width="1"/>
<text x="190.39370078740157" y="504" text-anchor="middle" font-family="monospace" font-size="12">c16</text>
<line x1="297.4803149606299" y1="480" x2="297.4803149606299" y2="486" stroke="black" stroke-width="1"/>
<text x="297.4803149606299" y="504" text-anchor="middle" font-family="monospace" font-size="12">c32</text>
<line x1="511.65354330708664" y1="480" x2="511.65354330708664" y2="486" stroke="black" stroke-width="1"/>
<text x="511.65354330708664" y="504" text-anchor="middle" font-family="monospace" font-size="12">c64</text>
<line x1="940.0" y1="480" x2="940.0" y2="486" stroke="black" stroke-width="1"/>
<text x="940.0" y="504" text-anchor="middle" font-family="monospace" font-size="12">c128</text>
<polyline points="90.00,478.06 136.85,477.77 190.39,449.41 297.48,396.90 511.65,299.81 940.00,125.45" fill="none" stroke="black" stroke-width="2.5"/>
<circle cx="90.0" cy="478.0590845750392" r="4" fill="black"/>
<text x="90.0" y="468.0590845750392" text-anchor="middle" font-family="monospace" font-size="10">0.34</text>
<circle cx="136.8503937007874" cy="477.77154826816553" r="4" fill="black"/>
<text x="136.8503937007874" y="467.77154826816553" text-anchor="middle" font-family="monospace" font-size="10">0.39</text>
<circle cx="190.39370078740157" cy="449.41195426911753" r="4" fill="black"/>
<text x="190.39370078740157" y="439.41195426911753" text-anchor="middle" font-family="monospace" font-size="10">5.36</text>
<circle cx="297.4803149606299" cy="396.8967033064588" r="4" fill="black"/>
<text x="297.4803149606299" y="386.8967033064588" text-anchor="middle" font-family="monospace" font-size="10">14.57</text>
<circle cx="511.65354330708664" cy="299.81286761597477" r="4" fill="black"/>
<text x="511.65354330708664" y="289.81286761597477" text-anchor="middle" font-family="monospace" font-size="10">31.59</text>
<circle cx="940.0" cy="125.45454545454544" r="4" fill="black"/>
<text x="940.0" y="115.45454545454544" text-anchor="middle" font-family="monospace" font-size="10">62.15</text>
<text x="490.0" y="536" text-anchor="middle" font-family="sans-serif" font-size="14">Concurrency</text>
<text x="22" y="280.0" text-anchor="middle" font-family="sans-serif" font-size="14" transform="rotate(-90 22 280.0)">P99 latency ms</text>
</svg>