<svg xmlns="http://www.w3.org/2000/svg" width="980" height="560" viewBox="0 0 980 560">
<rect width="100%" height="100%" fill="white"/>
<text x="490.0" y="35" text-anchor="middle" font-family="sans-serif" font-size="24" font-weight="700">SLH-DSA / SPHINCS+-SHA2-128f-simple VM normalized throughput vs P99</text>
<text x="490.0" y="62" text-anchor="middle" font-family="sans-serif" font-size="13">KVM/libvirt single-node VM; host-passthrough; 8 vCPU; 16 GiB; no explicit vCPU pinning</text>
<line x1="90" y1="470" x2="940" y2="470" stroke="black" stroke-width="1"/>
<line x1="90" y1="470" x2="90" y2="90" stroke="black" stroke-width="1"/>
<line x1="90" y1="470.0" x2="940" y2="470.0" stroke="#ddd" stroke-width="1"/>
<text x="80" y="474.0" text-anchor="end" font-family="monospace" font-size="11">0.0</text>
<line x1="90" y1="394.0" x2="940" y2="394.0" stroke="#ddd" stroke-width="1"/>
<text x="80" y="398.0" text-anchor="end" font-family="monospace" font-size="11">0.2</text>
<line x1="90" y1="318.0" x2="940" y2="318.0" stroke="#ddd" stroke-width="1"/>
<text x="80" y="322.0" text-anchor="end" font-family="monospace" font-size="11">0.4</text>
<line x1="90" y1="242.0" x2="940" y2="242.0" stroke="#ddd" stroke-width="1"/>
<text x="80" y="246.0" text-anchor="end" font-family="monospace" font-size="11">0.6</text>
<line x1="90" y1="166.0" x2="940" y2="166.0" stroke="#ddd" stroke-width="1"/>
<text x="80" y="170.0" text-anchor="end" font-family="monospace" font-size="11">0.8</text>
<line x1="90" y1="90.0" x2="940" y2="90.0" stroke="#ddd" stroke-width="1"/>
<text x="80" y="94.0" text-anchor="end" font-family="monospace" font-size="11">1.0</text>
<line x1="90.0" y1="470" x2="90.0" y2="476" stroke="black" stroke-width="1"/>
<text x="90.0" y="494" text-anchor="middle" font-family="monospace" font-size="12">c1</text>
<line x1="136.8503937007874" y1="470" x2="136.8503937007874" y2="476" stroke="black" stroke-width="1"/>
<text x="136.8503937007874" y="494" text-anchor="middle" font-family="monospace" font-size="12">c8</text>
<line x1="190.39370078740157" y1="470" x2="190.39370078740157" y2="476" stroke="black" stroke-width="1"/>
<text x="190.39370078740157" y="494" text-anchor="middle" font-family="monospace" font-size="12">c16</text>
<line x1="297.4803149606299" y1="470" x2="297.4803149606299" y2="476" stroke="black" stroke-width="1"/>
<text x="297.4803149606299" y="494" text-anchor="middle" font-family="monospace" font-size="12">c32</text>
<line x1="511.65354330708664" y1="470" x2="511.65354330708664" y2="476" stroke="black" stroke-width="1"/>
<text x="511.65354330708664" y="494" text-anchor="middle" font-family="monospace" font-size="12">c64</text>
<line x1="940.0" y1="470" x2="940.0" y2="476" stroke="black" stroke-width="1"/>
<text x="940.0" y="494" text-anchor="middle" font-family="monospace" font-size="12">c128</text>
<polyline points="90.00,416.91 136.85,90.00 190.39,95.44 297.48,109.48 511.65,120.41 940.00,129.70" fill="none" stroke="black" stroke-width="2.5"/>
<polyline points="90.00,467.92 136.85,467.61 190.39,437.22 297.48,380.93 511.65,276.88 940.00,90.00" fill="none" stroke="black" stroke-width="2.5" stroke-dasharray="7 5"/>
<text x="90" y="515" font-family="sans-serif" font-size="13">Solid: throughput normalized to peak (22555.04 verify/s)</text>
<text x="90" y="535" font-family="sans-serif" font-size="13">Dashed: P99 latency normalized to max (62.154521 ms)</text>
</svg>